<?xml version="1.0" standalone="no"?>
        <!DOCTYPE svg PUBLIC "-//W3C//DTD SVG 1.1//EN" 
        "http://www.w3.org/Graphics/SVG/1.1/DTD/svg11.dtd"><svg id="changeColor" fill="#DC7633" xmlns="http://www.w3.org/2000/svg" xmlns:xlink="http://www.w3.org/1999/xlink" width="200" zoomAndPan="magnify" viewBox="0 0 375 374.9999" height="200" preserveAspectRatio="xMidYMid meet" version="1.0"><defs><path id="pathAttribute" d="M 19.667969 37.5 L 355.667969 37.5 L 355.667969 337.5 L 19.667969 337.5 Z M 19.667969 37.5 " fill="#ffffff"></path></defs><g><path id="pathAttribute" d="M 187.667969 46.324219 C 275.328125 46.324219 346.652344 109.660156 346.652344 187.5 C 346.652344 265.339844 275.328125 328.675781 187.667969 328.675781 C 100.003906 328.675781 28.683594 265.339844 28.683594 187.5 C 28.683594 109.660156 100.003906 46.324219 187.667969 46.324219 M 187.667969 37.5 C 94.988281 37.5 19.851562 104.65625 19.851562 187.5 C 19.851562 270.34375 94.988281 337.5 187.667969 337.5 C 280.347656 337.5 355.484375 270.34375 355.484375 187.5 C 355.484375 104.65625 280.347656 37.5 187.667969 37.5 Z M 187.667969 37.5 " fill-opacity="1" fill-rule="nonzero" fill="#ffffff"></path></g><g id="inner-icon" transform="translate(85, 75)"> <!--?xml version="1.0" encoding="UTF-8"?--><svg width="199.8" height="199.8" viewBox="0 0 48 49" fill="none" xmlns="http://www.w3.org/2000/svg" id="IconChangeColor"><rect width="48" height="48" fill="white" fill-opacity="0.01"></rect><path d="M16.9963 7.68583C17.7228 7.68583 18.3922 8.07985 18.7449 8.71509L21.1913 13.1219C21.5116 13.6989 21.5267 14.3968 21.2315 14.9871L18.8747 19.7008C18.8747 19.7008 19.5577 23.2122 22.4161 26.0706C25.2746 28.929 28.7742 29.6002 28.7742 29.6002L33.4871 27.2438C34.0778 26.9484 34.7762 26.9637 35.3534 27.2846L39.7727 29.7416C40.4074 30.0945 40.8009 30.7635 40.8009 31.4896L40.8009 36.5631C40.8009 39.1468 38.401 41.0129 35.953 40.1868C30.925 38.4903 23.1203 35.2601 18.1735 30.3132C13.2267 25.3664 9.99643 17.5617 8.29989 12.5338C7.47387 10.0857 9.33996 7.68583 11.9236 7.68583L16.9963 7.68583Z" fill="#ffffff" stroke="#333" stroke-width="1" stroke-linejoin="round" id="mainIconPathAttribute" filter="url(#shadow)"></path><filter id="shadow"><feDropShadow id="shadowValue" stdDeviation=".5" dx="0" dy="0" flood-color="black"></feDropShadow></filter></svg> </g></svg>