<svg xmlns="http://www.w3.org/2000/svg" width="48" height="48"><linearGradient id="a" x1="14.111" x2="34.153" y1="-5.971" y2="51.731" gradientUnits="userSpaceOnUse"><stop offset="0" stop-color="#fcfcfc"/><stop offset=".495" stop-color="#f4f4f4"/><stop offset=".946" stop-color="#e8e8e8"/><stop offset="1" stop-color="#e8e8e8"/></linearGradient><path fill="url(#a)" d="M24 5C21.361 5 13.33 5 8.89 9.054 6.246 11.688 5 15.494 5 21v3c0 5.506 1.246 9.312 3.921 11.976 1.332 1.215 3.148 2.186 5.368 2.857l.711.214v5.328c0 .625.181.625.241.625.123 0 .32-.039.694-.371.09-.089.75-.803 3.96-4.399l.324-.363.485.031c1.075.067 2.184.102 3.296.102 2.639 0 10.67 0 15.11-4.055C41.753 33.311 43 29.505 43 24v-3c0-5.506-1.246-9.312-3.921-11.976C34.67 5 26.639 5 24 5z"/><linearGradient id="b" x1="42.608" x2="2.522" y1="48.397" y2="-7.263" gradientUnits="userSpaceOnUse"><stop offset="0" stop-color="#912fbd"/><stop offset="1" stop-color="#9332bf"/></linearGradient><path fill="url(#b)" d="M33.451 28.854c-1.111-.936-1.624-1.219-3.158-2.14-.639-.383-1.613-.714-2.124-.714-.349 0-.767.267-1.023.523-.656.656-.871 1.477-2.021 1.477-1.125 0-3.09-1.145-4.5-2.625C19.145 23.965 18 22 18 20.875c0-1.15.806-1.38 1.462-2.037.256-.255.538-.673.538-1.022 0-.511-.331-1.47-.714-2.109-.921-1.535-1.203-2.048-2.14-3.158-.317-.376-.678-.548-1.056-.549-.639-.001-1.478.316-2.046.739-.854.637-1.747 1.504-1.986 2.584a2.57 2.57 0 0 0-.057.443c-.046 1.125.396 2.267.873 3.234 1.123 2.279 2.609 4.485 4.226 6.455.517.63 1.08 1.216 1.663 1.782a21.91 21.91 0 0 0 1.782 1.663c1.97 1.617 4.176 3.103 6.455 4.226.958.472 2.086.906 3.2.874a2.59 2.59 0 0 0 .477-.058c1.08-.238 1.947-1.132 2.584-1.986.423-.568.74-1.406.739-2.046-.001-.378-.173-.739-.549-1.056zM34 24a1 1 0 0 1-1-1v-1c0-4.962-4.038-9-9-9a1 1 0 0 1 0-2c6.065 0 11 4.935 11 11v1a1 1 0 0 1-1 1zm-6.142-2a1 1 0 0 1-.967-.748 2.988 2.988 0 0 0-2.141-2.142 1 1 0 0 1 .501-1.937 4.994 4.994 0 0 1 3.575 3.574A1 1 0 0 1 27.858 22zM31 23a1 1 0 0 1-1-1 5.993 5.993 0 0 0-5.678-5.986 1 1 0 1 1 .105-1.997A7.993 7.993 0 0 1 32 22a1 1 0 0 1-1 1zM24 4c-4.5 0-11.512.414-15.784 4.316C5.196 11.323 4 15.541 4 21c0 .452-.002.956.002 1.5-.004.543-.002 1.047-.002 1.499 0 5.459 1.196 9.677 4.216 12.684 1.626 1.485 3.654 2.462 5.784 3.106v4.586C14 45.971 15.049 46 15.241 46h.009c.494-.002.921-.244 1.349-.624.161-.143 2.02-2.215 4.042-4.481 1.204.077 2.348.105 3.358.105 4.5 0 11.511-.415 15.784-4.317 3.019-3.006 4.216-7.225 4.216-12.684 0-.452.002-.956-.002-1.5.004-.544.002-1.047.002-1.5 0-5.459-1.196-9.677-4.216-12.684C35.511 4.414 28.5 4 24 4zm17 19.651v.348c0 4.906-1.045 8.249-3.286 10.512C33.832 38 26.437 38 23.999 38c-.742 0-1.946-.001-3.367-.1-.395.444-4.632 5.183-4.632 5.183V37.22c-2.104-.505-4.183-1.333-5.714-2.708C8.045 32.248 7 28.905 7 23.999v-.348c0-.351-.001-.73.002-1.173-.003-.4-.003-.778-.002-1.13V21c0-4.906 1.045-8.249 3.286-10.512C14.167 6.999 21.563 6.999 24 6.999s9.832 0 13.713 3.489c2.242 2.263 3.286 5.606 3.286 10.512v.348c0 .351.001.73-.002 1.173.003.401.003.779.003 1.13z"/></svg>